<?xml version="1.0" encoding="UTF-8" standalone="no"?>
<!DOCTYPE svg PUBLIC "-//W3C//DTD SVG 1.1//EN" "http://www.w3.org/Graphics/SVG/1.1/DTD/svg11.dtd">
<svg width="348px" height="203px" version="1.1" xmlns="http://www.w3.org/2000/svg" xmlns:xlink="http://www.w3.org/1999/xlink" xml:space="preserve" xmlns:serif="http://www.serif.com/" style="fill-rule:evenodd;clip-rule:evenodd;stroke-linecap:round;stroke-linejoin:round;stroke-miterlimit:1.5;">
    <g transform="matrix(1,0,0,1,-31.1144,-69.9892)">
        <g id="JS" transform="matrix(4.46041,-2.57522,4.46041,2.57522,-93.8475,127.516)">
            <g transform="matrix(1,0,0,1,9,-1.5)">
                <path d="M16,28.5L16,31L20.5,29.5L21,22.5L18,22.5L18,20L21,20L21,18L16,18L16,25L18.5,25L18,28L16,28.5Z" style="fill:none;stroke:white;stroke-width:0.34px;"/>
            </g>
            <g transform="matrix(1,0,0,1,9,-1.5)">
                <path d="M9,33L7,14L25,14L23,33L16,35L9,33Z" style="fill:none;stroke:rgb(217,10,44);stroke-width:0.68px;stroke-miterlimit:2;"/>
                <path d="M9,33L7,14L25,14L23,33L16,35L9,33Z" style="fill:none;stroke:black;stroke-width:0.34px;"/>
            </g>
            <g transform="matrix(1,0,0,1,9,-1.5)">
                <path d="M11,30L15,31L15,18L13,18L13,28L12.5,28L12,26L11,26L11,30Z" style="fill:none;stroke:white;stroke-width:0.34px;"/>
            </g>
        </g>
        <g id="CSS" transform="matrix(4.46041,-2.57522,4.46041,2.57522,-80.4663,227.95)">
            <g transform="matrix(1,0,0,1,9,-1.5)">
                <path d="M9,33L7,14L25,14L23,33L16,35L9,33Z" style="fill:none;stroke:rgb(217,10,44);stroke-width:0.68px;stroke-miterlimit:2;"/>
                <path d="M9,33L7,14L25,14L23,33L16,35L9,33Z" style="fill:none;stroke:black;stroke-width:0.34px;"/>
            </g>
            <g transform="matrix(0.0855978,0,0,0.0855978,14.0435,12.0435)">
                <path d="M60,53.679L200,53.679L200,80L128,108.871L191.362,108.871L184.396,200L128,212.289L70.261,200L70.261,152.81L94.91,152.81L94.91,172.101L128,185.497L160,172.101L160,140L65.974,140L65.974,108.871L128,80L60,80L60,53.679Z" style="fill:none;stroke:white;stroke-width:4px;"/>
            </g>
        </g>
        <g id="HTML" transform="matrix(4.46041,-2.57522,4.46041,2.57522,93.4897,235.675)">
            <g transform="matrix(1,0,0,1,9,-1.5)">
                <path d="M9,33L7,14L25,14L23,33L16,35L9,33Z" style="fill:none;stroke:rgb(217,10,44);stroke-width:0.68px;stroke-miterlimit:2;"/>
                <path d="M9,33L7,14L25,14L23,33L16,35L9,33Z" style="fill:none;stroke:black;stroke-width:0.34px;"/>
            </g>
            <g transform="matrix(0.0855978,0,0,0.0855978,14.0435,12.0435)">
                <path d="M56.039,54.982L194.07,54.982L194.07,80L85.839,80L85.839,110L190,110L180,195.729L128,214.774L70,195.729L64.007,150L90,150L90,173.432L128,183.651L160,173.432L160,140L64.007,140L56.039,54.982Z" style="fill:none;stroke:white;stroke-width:4px;"/>
            </g>
        </g>
    </g>
</svg>
