<?xml version="1.0" encoding="UTF-8" standalone="no"?>
<!DOCTYPE svg PUBLIC "-//W3C//DTD SVG 1.1//EN" "http://www.w3.org/Graphics/SVG/1.1/DTD/svg11.dtd">
<svg width="219px" height="254px" version="1.1" xmlns="http://www.w3.org/2000/svg" xmlns:xlink="http://www.w3.org/1999/xlink" xml:space="preserve" xmlns:serif="http://www.serif.com/" style="fill-rule:evenodd;clip-rule:evenodd;stroke-linecap:round;stroke-linejoin:round;stroke-miterlimit:1.5;">
    <g transform="matrix(1,0,0,1,-18.8571,-1.33333)">
        <g transform="matrix(11.6825,0,0,11.6825,-164.063,-140.698)">
            <g transform="matrix(1,0,0,1,9,-1.5)">
                <path d="M16,28.5L16,31L20.5,29.5L21,22.5L18,22.5L18,20L21,20L21,18L16,18L16,25L18.5,25L18,28L16,28.5Z" style="fill:none;stroke:white;stroke-width:0.34px;"/>
            </g>
            <g transform="matrix(1,0,0,1,9,-1.5)">
                <path d="M9,33L7,14L25,14L23,33L16,35L9,33Z" style="fill:none;stroke:rgb(217,10,44);stroke-width:0.68px;stroke-miterlimit:2;"/>
                <path d="M9,33L7,14L25,14L23,33L16,35L9,33Z" style="fill:none;stroke:black;stroke-width:0.34px;"/>
            </g>
            <g transform="matrix(1,0,0,1,9,-1.5)">
                <path d="M11,30L15,31L15,18L13,18L13,28L12.5,28L12,26L11,26L11,30Z" style="fill:none;stroke:white;stroke-width:0.34px;"/>
            </g>
        </g>
    </g>
</svg>
